<svg viewBox="0 0 1200 630" xmlns="http://www.w3.org/2000/svg" width="1200" height="630">
  <defs>
    <linearGradient id="bg" x1="0%" y1="0%" x2="100%" y2="100%">
      <stop offset="0%" style="stop-color:#050f05"/>
      <stop offset="100%" style="stop-color:#08111e"/>
    </linearGradient>
  </defs>
  <rect width="1200" height="630" fill="url(#bg)"/>
  <!-- Scanline effect -->
  <g opacity="0.04">
    <rect x="0" y="0" width="1200" height="2" fill="#22c55e"/>
    <rect x="0" y="6" width="1200" height="1" fill="#22c55e"/>
    <rect x="0" y="12" width="1200" height="2" fill="#22c55e"/>
    <rect x="0" y="20" width="1200" height="1" fill="#22c55e"/>
    <rect x="0" y="28" width="1200" height="2" fill="#22c55e"/>
    <rect x="0" y="36" width="1200" height="1" fill="#22c55e"/>
    <rect x="0" y="44" width="1200" height="2" fill="#22c55e"/>
  </g>
  <!-- Terminal window left -->
  <rect x="40" y="60" width="580" height="450" rx="8" fill="#060f06" stroke="#16a34a" stroke-width="2"/>
  <!-- Terminal title bar -->
  <rect x="40" y="60" width="580" height="32" rx="8" fill="#14532d"/>
  <rect x="40" y="80" width="580" height="12" fill="#14532d"/>
  <circle cx="64" cy="76" r="7" fill="#ef4444" opacity="0.8"/>
  <circle cx="86" cy="76" r="7" fill="#eab308" opacity="0.8"/>
  <circle cx="108" cy="76" r="7" fill="#22c55e" opacity="0.8"/>
  <text x="320" y="82" text-anchor="middle" fill="#86efac" font-size="12" font-family="monospace">SOC Terminal — BOTSv3 Analysis</text>
  <!-- Terminal content -->
  <text x="60" y="120" fill="#22c55e" font-size="11" font-family="monospace">$ splunk search "index=botsv3 date=20180820"</text>
  <text x="60" y="140" fill="#6b7280" font-size="10" font-family="monospace">Searching 847,293 events...</text>
  <text x="60" y="162" fill="#86efac" font-size="10" font-family="monospace">━━━ INITIAL ACCESS (09:16:12) ━━━━━━━━━━━━━━━━━━━</text>
  <text x="60" y="180" fill="#fbbf24" font-size="10" font-family="monospace">  [!] web_admin → IAM access attempt</text>
  <text x="60" y="196" fill="#fbbf24" font-size="10" font-family="monospace">  [!] Leaked creds detected on GitHub</text>
  <text x="60" y="218" fill="#86efac" font-size="10" font-family="monospace">━━━ EXECUTION (09:55:14) ━━━━━━━━━━━━━━━━━━━━━━━━</text>
  <text x="60" y="236" fill="#ef4444" font-size="10" font-family="monospace">  [!] Phishing: FY2019-Draft.xlsm</text>
  <text x="60" y="252" fill="#ef4444" font-size="10" font-family="monospace">  [!] HxTsr.exe detected (Sysmon)</text>
  <text x="60" y="274" fill="#86efac" font-size="10" font-family="monospace">━━━ C2 COMMUNICATIONS (10:01–10:15) ━━━━━━━━━━━━</text>
  <text x="60" y="292" fill="#f97316" font-size="10" font-family="monospace">  [C2] 10:01:44 → beacon</text>
  <text x="60" y="308" fill="#f97316" font-size="10" font-family="monospace">  [C2] 10:07:07 → beacon</text>
  <text x="60" y="324" fill="#f97316" font-size="10" font-family="monospace">  [C2] 10:11:02 → beacon</text>
  <text x="60" y="344" fill="#86efac" font-size="10" font-family="monospace">━━━ PRIVILEGE ESCALATION (11:34:49) ━━━━━━━━━━━━</text>
  <text x="60" y="362" fill="#ef4444" font-size="10" font-family="monospace">  [CRIT] CVE-2017-16995 → ROOT</text>
  <text x="60" y="378" fill="#ef4444" font-size="10" font-family="monospace">  [CRIT] ./colonelnew executed</text>
  <text x="60" y="398" fill="#86efac" font-size="10" font-family="monospace">━━━ EXFILTRATION (13:01–13:04) ━━━━━━━━━━━━━━━━━━</text>
  <text x="60" y="416" fill="#a855f7" font-size="10" font-family="monospace">  S3 bucket → PUBLIC</text>
  <text x="60" y="432" fill="#a855f7" font-size="10" font-family="monospace">  frothly_html_memcached.tar.gz</text>
  <text x="60" y="452" fill="#86efac" font-size="10" font-family="monospace">━━━ IMPACT: Memcached DDoS (15:11–15:27) ━━━━━━</text>
  <text x="60" y="470" fill="#ef4444" font-size="10" font-family="monospace">  [CRIT] DDoS amplification attack</text>
  <text x="60" y="490" fill="#22c55e" font-size="10" font-family="monospace">$ _</text>
  <!-- MITRE ATT&CK matrix right -->
  <rect x="660" y="60" width="510" height="450" rx="8" fill="#050f05" stroke="#16a34a" stroke-width="1.5" opacity="0.9"/>
  <text x="915" y="95" text-anchor="middle" fill="#86efac" font-size="13" font-weight="700" font-family="monospace">MITRE ATT&amp;CK COVERAGE</text>
  <!-- Tactic columns -->
  <g font-size="9" font-family="monospace" fill="#4ade80">
    <text x="685" y="120">INITIAL</text>
    <text x="685" y="132">ACCESS</text>
    <rect x="680" y="138" width="60" height="20" rx="3" fill="#14532d" stroke="#22c55e" stroke-width="1"/>
    <text x="710" y="152" text-anchor="middle" fill="#86efac" font-size="8">T1566</text>

    <text x="760" y="120">EXEC</text>
    <rect x="755" y="138" width="60" height="20" rx="3" fill="#14532d" stroke="#22c55e" stroke-width="1"/>
    <text x="785" y="152" text-anchor="middle" fill="#86efac" font-size="8">T1204</text>

    <text x="835" y="120">PERSIST</text>
    <rect x="830" y="138" width="60" height="20" rx="3" fill="#0f3a0f" stroke="#16a34a" stroke-width="1"/>
    <text x="860" y="152" text-anchor="middle" fill="#86efac" font-size="8">T1136</text>

    <text x="910" y="120">PRIV ESC</text>
    <rect x="905" y="138" width="60" height="20" rx="3" fill="#3b0000" stroke="#ef4444" stroke-width="1"/>
    <text x="935" y="152" text-anchor="middle" fill="#fca5a5" font-size="8">T1068</text>

    <text x="985" y="120">DEF EVA</text>
    <rect x="980" y="138" width="60" height="20" rx="3" fill="#0f3a0f" stroke="#16a34a" stroke-width="1"/>
    <text x="1010" y="152" text-anchor="middle" fill="#86efac" font-size="8">T1070</text>

    <text x="1058" y="120">DISCO</text>
    <rect x="1055" y="138" width="60" height="20" rx="3" fill="#0f3a0f" stroke="#16a34a" stroke-width="1"/>
    <text x="1085" y="152" text-anchor="middle" fill="#86efac" font-size="8">T1046</text>
  </g>
  <!-- Second row -->
  <g font-size="9" font-family="monospace">
    <rect x="680" y="168" width="60" height="20" rx="3" fill="#14532d" stroke="#22c55e" stroke-width="1"/>
    <text x="710" y="182" text-anchor="middle" fill="#86efac" font-size="8">T1078</text>
    <rect x="755" y="168" width="60" height="20" rx="3" fill="#14532d" stroke="#22c55e" stroke-width="1"/>
    <text x="785" y="182" text-anchor="middle" fill="#86efac" font-size="8">T1059</text>
    <rect x="905" y="168" width="60" height="20" rx="3" fill="#3b0000" stroke="#ef4444" stroke-width="1"/>
    <text x="935" y="182" text-anchor="middle" fill="#fca5a5" font-size="8">T1055</text>
  </g>
  <!-- C2 / EXFIL / IMPACT -->
  <g font-size="9" font-family="monospace" fill="#4ade80">
    <text x="685" y="210">LATERAL</text>
    <rect x="680" y="218" width="60" height="20" rx="3" fill="#0f3a0f" stroke="#16a34a" stroke-width="1"/>
    <text x="710" y="232" text-anchor="middle" fill="#86efac" font-size="8">T1021</text>

    <text x="760" y="210">COLLECT</text>
    <rect x="755" y="218" width="60" height="20" rx="3" fill="#0f3a0f" stroke="#16a34a" stroke-width="1"/>
    <text x="785" y="232" text-anchor="middle" fill="#86efac" font-size="8">T1530</text>

    <text x="835" y="210">C2</text>
    <rect x="830" y="218" width="60" height="20" rx="3" fill="#3b0000" stroke="#ef4444" stroke-width="1"/>
    <text x="860" y="232" text-anchor="middle" fill="#fca5a5" font-size="8">T1071</text>

    <text x="910" y="210">EXFIL</text>
    <rect x="905" y="218" width="60" height="20" rx="3" fill="#3b0000" stroke="#ef4444" stroke-width="1"/>
    <text x="935" y="232" text-anchor="middle" fill="#fca5a5" font-size="8">T1567</text>

    <text x="985" y="210">IMPACT</text>
    <rect x="980" y="218" width="60" height="20" rx="3" fill="#3b0000" stroke="#ef4444" stroke-width="1.5"/>
    <text x="1010" y="232" text-anchor="middle" fill="#fca5a5" font-size="8">T1498</text>
  </g>
  <!-- Timeline bar -->
  <rect x="680" y="290" width="460" height="8" rx="4" fill="#14532d"/>
  <rect x="680" y="290" width="460" height="8" rx="4" fill="url(#timelineGrad)"/>
  <!-- Timeline markers -->
  <g font-size="9" font-family="monospace" fill="#86efac">
    <line x1="680" y1="285" x2="680" y2="305" stroke="#22c55e" stroke-width="2"/>
    <text x="680" y="320" text-anchor="middle">09:16</text>
    <line x1="760" y1="285" x2="760" y2="305" stroke="#fbbf24" stroke-width="2"/>
    <text x="760" y="320" text-anchor="middle">09:55</text>
    <line x1="870" y1="285" x2="870" y2="305" stroke="#f97316" stroke-width="2"/>
    <text x="870" y="320" text-anchor="middle">11:34</text>
    <line x1="980" y1="285" x2="980" y2="305" stroke="#a855f7" stroke-width="2"/>
    <text x="980" y="320" text-anchor="middle">13:01</text>
    <line x1="1100" y1="285" x2="1100" y2="305" stroke="#ef4444" stroke-width="2"/>
    <text x="1100" y="320" text-anchor="middle">15:11</text>
  </g>
  <!-- BOTS badge -->
  <rect x="660" y="360" width="510" height="140" rx="6" fill="#060f06" stroke="#16a34a" stroke-width="1"/>
  <text x="915" y="395" text-anchor="middle" fill="#22c55e" font-size="16" font-weight="800" font-family="monospace">BOSS OF THE SOC V3</text>
  <text x="915" y="418" text-anchor="middle" fill="#6b7280" font-size="11" font-family="monospace">Splunk SIEM · MITRE ATT&amp;CK · Blue Team CTF</text>
  <text x="915" y="445" text-anchor="middle" fill="#4ade80" font-size="12" font-family="monospace">Date: 20 August 2018 | 09:00–16:00</text>
  <text x="915" y="468" text-anchor="middle" fill="#86efac" font-size="11" font-family="monospace">Frothly Brewery · AWS · Memcached DDoS</text>
  <!-- MarcoWeb watermark -->
  <text x="30" y="40" fill="#22c55e" font-size="14" font-weight="700" font-family="system-ui, sans-serif" opacity="0.9">MarcoWeb.org</text>
  <!-- Category badge -->
  <rect x="1055" y="22" width="125" height="28" rx="14" fill="#14532d" stroke="#22c55e" stroke-width="1.5"/>
  <text x="1117" y="41" text-anchor="middle" fill="#86efac" font-size="12" font-weight="600">TUTORIAL</text>
  <!-- Bottom band -->
  <rect x="0" y="530" width="1200" height="100" fill="#020a02" opacity="0.97"/>
  <rect x="0" y="528" width="1200" height="3" fill="#22c55e"/>
  <text x="50" y="578" fill="white" font-size="28" font-weight="800" font-family="system-ui, sans-serif">Boss of The SOC V3 Timeline</text>
  <text x="50" y="612" fill="#86efac" font-size="18" font-family="system-ui, sans-serif">MITRE ATT&amp;CK · Incident Analysis · 20 Aug 2018</text>
</svg>
