<svg viewBox="0 0 1200 630" xmlns="http://www.w3.org/2000/svg" font-family="system-ui, -apple-system, sans-serif">
  <defs>
    <linearGradient id="bg" x1="0%" y1="0%" x2="100%" y2="100%">
      <stop offset="0%" stop-color="#051a1a"/>
      <stop offset="100%" stop-color="#0d3d3d"/>
    </linearGradient>
    <linearGradient id="accent" x1="0%" y1="0%" x2="100%" y2="0%">
      <stop offset="0%" stop-color="#14b8a6"/>
      <stop offset="100%" stop-color="#2dd4bf"/>
    </linearGradient>
  </defs>
  <rect width="1200" height="630" fill="url(#bg)"/>
  <line x1="0" y1="210" x2="1200" y2="210" stroke="#ffffff" stroke-opacity="0.03" stroke-width="1"/>
  <line x1="0" y1="420" x2="1200" y2="420" stroke="#ffffff" stroke-opacity="0.03" stroke-width="1"/>
  <line x1="400" y1="0" x2="400" y2="630" stroke="#ffffff" stroke-opacity="0.03" stroke-width="1"/>
  <!-- Network layers icon -->
  <rect x="70" y="200" width="240" height="55" fill="none" stroke="#14b8a6" stroke-width="2" rx="6" stroke-opacity="0.9"/>
  <text x="190" y="233" fill="#2dd4bf" font-size="12" text-anchor="middle">INTERNET / DMZ</text>
  <rect x="90" y="270" width="200" height="55" fill="none" stroke="#0d9488" stroke-width="2" rx="6" stroke-opacity="0.9"/>
  <text x="190" y="303" fill="#5eead4" font-size="12" text-anchor="middle">INTERNAL NETWORK</text>
  <rect x="110" y="340" width="160" height="55" fill="none" stroke="#0f766e" stroke-width="2" rx="6" stroke-opacity="0.9"/>
  <text x="190" y="373" fill="#99f6e4" font-size="12" text-anchor="middle">PRODUCTION DATA</text>
  <line x1="190" y1="255" x2="190" y2="270" stroke="#14b8a6" stroke-width="2" stroke-opacity="0.7"/>
  <line x1="190" y1="325" x2="190" y2="340" stroke="#14b8a6" stroke-width="2" stroke-opacity="0.7"/>
  <!-- firewall icons -->
  <rect x="182" y="258" width="16" height="10" fill="#14b8a6" rx="2"/>
  <rect x="182" y="328" width="16" height="10" fill="#14b8a6" rx="2"/>
  <text x="310" y="180" fill="#2dd4bf" font-size="13" font-weight="600" letter-spacing="4" opacity="0.9">GROUP B · CONTROL B.1</text>
  <text x="310" y="265" fill="#ffffff" font-size="52" font-weight="800" letter-spacing="-1">Network Architecture</text>
  <text x="310" y="320" fill="#99f6e4" font-size="22" font-weight="400" opacity="0.85">Segmentation, DMZ Design and Defence in Depth</text>
  <rect x="310" y="355" width="60" height="4" fill="url(#accent)" rx="2"/>
  <text x="310" y="410" fill="#2dd4bf" font-size="15" font-weight="500" letter-spacing="2" opacity="0.8">IT GENERAL CONTROLS · IT AUDIT</text>
  <text x="310" y="500" fill="#ffffff" font-size="16" opacity="0.5" letter-spacing="1">marcoweb.org</text>
</svg>
