<svg viewBox="0 0 1200 630" xmlns="http://www.w3.org/2000/svg" font-family="system-ui, -apple-system, sans-serif">
  <defs>
    <linearGradient id="bg" x1="0%" y1="0%" x2="100%" y2="100%">
      <stop offset="0%" stop-color="#0f0a1e"/>
      <stop offset="100%" stop-color="#2d1b5e"/>
    </linearGradient>
    <linearGradient id="accent" x1="0%" y1="0%" x2="100%" y2="0%">
      <stop offset="0%" stop-color="#8b5cf6"/>
      <stop offset="100%" stop-color="#a78bfa"/>
    </linearGradient>
  </defs>
  <rect width="1200" height="630" fill="url(#bg)"/>
  <line x1="0" y1="210" x2="1200" y2="210" stroke="#ffffff" stroke-opacity="0.03" stroke-width="1"/>
  <line x1="0" y1="420" x2="1200" y2="420" stroke="#ffffff" stroke-opacity="0.03" stroke-width="1"/>
  <line x1="400" y1="0" x2="400" y2="630" stroke="#ffffff" stroke-opacity="0.03" stroke-width="1"/>
  <!-- User + form icon -->
  <circle cx="185" cy="240" r="35" fill="none" stroke="#8b5cf6" stroke-width="2"/>
  <circle cx="185" cy="230" r="16" fill="none" stroke="#a78bfa" stroke-width="2"/>
  <path d="M149 272 Q149 252 185 252 Q221 252 221 272" fill="none" stroke="#a78bfa" stroke-width="2"/>
  <!-- Access request form -->
  <rect x="100" y="295" width="170" height="110" fill="none" stroke="#8b5cf6" stroke-width="1.5" rx="4" stroke-opacity="0.7"/>
  <text x="185" y="315" fill="#c4b5fd" font-size="10" text-anchor="middle" opacity="0.8">ACCESS REQUEST FORM</text>
  <line x1="115" y1="325" x2="255" y2="325" stroke="#8b5cf6" stroke-opacity="0.3" stroke-width="1"/>
  <rect x="115" y="333" width="120" height="10" fill="#8b5cf6" fill-opacity="0.2" rx="2"/>
  <text x="175" y="341" fill="#a78bfa" font-size="9">Role: Finance Analyst</text>
  <rect x="115" y="350" width="120" height="10" fill="#8b5cf6" fill-opacity="0.2" rx="2"/>
  <text x="175" y="358" fill="#a78bfa" font-size="9">Approved by: Manager</text>
  <!-- Checkmark approval -->
  <circle cx="258" cy="380" r="14" fill="#22c55e" fill-opacity="0.3" stroke="#22c55e" stroke-width="1.5"/>
  <path d="M251 380 L257 386 L266 374" stroke="#22c55e" stroke-width="2.5" fill="none" stroke-linecap="round"/>
  <text x="310" y="180" fill="#a78bfa" font-size="13" font-weight="600" letter-spacing="4" opacity="0.9">GROUP C · CONTROL C.2</text>
  <text x="310" y="265" fill="#ffffff" font-size="52" font-weight="800" letter-spacing="-1">New User Access</text>
  <text x="310" y="320" fill="#c4b5fd" font-size="22" font-weight="400" opacity="0.85">Provisioning, Approval and Least Privilege</text>
  <rect x="310" y="355" width="60" height="4" fill="url(#accent)" rx="2"/>
  <text x="310" y="410" fill="#a78bfa" font-size="15" font-weight="500" letter-spacing="2" opacity="0.8">IT GENERAL CONTROLS · IT AUDIT</text>
  <text x="310" y="500" fill="#ffffff" font-size="16" opacity="0.5" letter-spacing="1">marcoweb.org</text>
</svg>
