<svg viewBox="0 0 1200 630" xmlns="http://www.w3.org/2000/svg" font-family="system-ui, -apple-system, sans-serif">
  <defs>
    <linearGradient id="bg" x1="0%" y1="0%" x2="100%" y2="100%">
      <stop offset="0%" stop-color="#0f0a1e"/>
      <stop offset="100%" stop-color="#2d1b5e"/>
    </linearGradient>
    <linearGradient id="accent" x1="0%" y1="0%" x2="100%" y2="0%">
      <stop offset="0%" stop-color="#8b5cf6"/>
      <stop offset="100%" stop-color="#a78bfa"/>
    </linearGradient>
  </defs>
  <rect width="1200" height="630" fill="url(#bg)"/>
  <line x1="0" y1="210" x2="1200" y2="210" stroke="#ffffff" stroke-opacity="0.03" stroke-width="1"/>
  <line x1="0" y1="420" x2="1200" y2="420" stroke="#ffffff" stroke-opacity="0.03" stroke-width="1"/>
  <line x1="400" y1="0" x2="400" y2="630" stroke="#ffffff" stroke-opacity="0.03" stroke-width="1"/>
  <!-- Access review table -->
  <rect x="75" y="210" width="280" height="220" fill="none" stroke="#8b5cf6" stroke-width="1.5" rx="4" stroke-opacity="0.6"/>
  <rect x="75" y="210" width="280" height="25" fill="#8b5cf6" fill-opacity="0.15" rx="4"/>
  <text x="215" y="227" fill="#c4b5fd" font-size="11" text-anchor="middle" font-weight="600">USER ACCESS REVIEW</text>
  <line x1="75" y1="235" x2="355" y2="235" stroke="#8b5cf6" stroke-opacity="0.3" stroke-width="1"/>
  <!-- Column headers -->
  <text x="115" y="250" fill="#8b5cf6" font-size="9" opacity="0.7">USER</text>
  <text x="190" y="250" fill="#8b5cf6" font-size="9" opacity="0.7">ROLE</text>
  <text x="270" y="250" fill="#8b5cf6" font-size="9" opacity="0.7">STATUS</text>
  <!-- Rows -->
  <text x="90" y="267" fill="#c4b5fd" font-size="9">j.smith</text>
  <text x="165" y="267" fill="#c4b5fd" font-size="9">Analyst</text>
  <circle cx="278" cy="263" r="5" fill="#22c55e" fill-opacity="0.7"/>
  <text x="287" y="267" fill="#6ee7b7" font-size="9">KEEP</text>

  <text x="90" y="285" fill="#c4b5fd" font-size="9">m.jones</text>
  <text x="165" y="285" fill="#c4b5fd" font-size="9">Manager</text>
  <circle cx="278" cy="281" r="5" fill="#22c55e" fill-opacity="0.7"/>
  <text x="287" y="285" fill="#6ee7b7" font-size="9">KEEP</text>

  <text x="90" y="303" fill="#fca5a5" font-size="9">r.taylor</text>
  <text x="165" y="303" fill="#fca5a5" font-size="9">LEFT ORG</text>
  <circle cx="278" cy="299" r="5" fill="#ef4444" fill-opacity="0.7"/>
  <text x="287" y="303" fill="#fca5a5" font-size="9">REVOKE</text>

  <text x="90" y="321" fill="#c4b5fd" font-size="9">svc_batch</text>
  <text x="165" y="321" fill="#fbbf24" font-size="9">Svc Acct</text>
  <circle cx="278" cy="317" r="5" fill="#f59e0b" fill-opacity="0.7"/>
  <text x="287" y="321" fill="#fbbf24" font-size="9">REVIEW</text>

  <text x="90" y="339" fill="#c4b5fd" font-size="9">a.chen</text>
  <text x="165" y="339" fill="#c4b5fd" font-size="9">Developer</text>
  <circle cx="278" cy="335" r="5" fill="#22c55e" fill-opacity="0.7"/>
  <text x="287" y="339" fill="#6ee7b7" font-size="9">KEEP</text>
  <text x="310" y="180" fill="#a78bfa" font-size="13" font-weight="600" letter-spacing="4" opacity="0.9">GROUP C · CONTROL C.6</text>
  <text x="310" y="265" fill="#ffffff" font-size="52" font-weight="800" letter-spacing="-1">Access Reviews</text>
  <text x="310" y="320" fill="#c4b5fd" font-size="22" font-weight="400" opacity="0.85">Periodic Certification, Recertification and Removal</text>
  <rect x="310" y="355" width="60" height="4" fill="url(#accent)" rx="2"/>
  <text x="310" y="410" fill="#a78bfa" font-size="15" font-weight="500" letter-spacing="2" opacity="0.8">IT GENERAL CONTROLS · IT AUDIT</text>
  <text x="310" y="500" fill="#ffffff" font-size="16" opacity="0.5" letter-spacing="1">marcoweb.org</text>
</svg>
