<svg viewBox="0 0 1200 630" xmlns="http://www.w3.org/2000/svg" font-family="system-ui, -apple-system, sans-serif">
  <defs>
    <linearGradient id="bg" x1="0%" y1="0%" x2="100%" y2="100%">
      <stop offset="0%" stop-color="#0a0f1e"/>
      <stop offset="100%" stop-color="#1a2f6e"/>
    </linearGradient>
    <linearGradient id="accent" x1="0%" y1="0%" x2="100%" y2="0%">
      <stop offset="0%" stop-color="#6366f1"/>
      <stop offset="100%" stop-color="#818cf8"/>
    </linearGradient>
  </defs>
  <rect width="1200" height="630" fill="url(#bg)"/>
  <line x1="0" y1="210" x2="1200" y2="210" stroke="#ffffff" stroke-opacity="0.03" stroke-width="1"/>
  <line x1="0" y1="420" x2="1200" y2="420" stroke="#ffffff" stroke-opacity="0.03" stroke-width="1"/>
  <line x1="400" y1="0" x2="400" y2="630" stroke="#ffffff" stroke-opacity="0.03" stroke-width="1"/>
  <!-- Access review certification panel -->
  <rect x="80" y="205" width="280" height="210" fill="none" stroke="#6366f1" stroke-width="1.5" rx="6" stroke-opacity="0.6"/>
  <text x="220" y="228" fill="#818cf8" font-size="11" text-anchor="middle">QUARTERLY ACCESS REVIEW</text>
  <line x1="80" y1="238" x2="360" y2="238" stroke="#6366f1" stroke-opacity="0.3" stroke-width="1"/>
  <!-- User review rows -->
  <text x="95" y="258" fill="#a5b4fc" font-size="9">USER</text>
  <text x="200" y="258" fill="#a5b4fc" font-size="9">ROLE</text>
  <text x="300" y="258" fill="#a5b4fc" font-size="9">STATUS</text>
  <line x1="90" y1="263" x2="355" y2="263" stroke="#6366f1" stroke-opacity="0.2" stroke-width="1"/>
  <text x="95" y="278" fill="#e2e8f0" font-size="9">J.Smith</text>
  <text x="200" y="278" fill="#e2e8f0" font-size="9">AP Clerk</text>
  <text x="300" y="278" fill="#86efac" font-size="9">OK</text>
  <text x="95" y="294" fill="#e2e8f0" font-size="9">M.Jones</text>
  <text x="200" y="294" fill="#e2e8f0" font-size="9">Fin Mgr</text>
  <text x="300" y="294" fill="#86efac" font-size="9">OK</text>
  <text x="95" y="310" fill="#fca5a5" font-size="9">R.Ahmed</text>
  <text x="200" y="310" fill="#fca5a5" font-size="9">SAP_ALL</text>
  <text x="300" y="310" fill="#fbbf24" font-size="9">OVERDUE</text>
  <text x="95" y="326" fill="#fca5a5" font-size="9">TERM_002</text>
  <text x="200" y="326" fill="#fca5a5" font-size="9">AP Admin</text>
  <text x="300" y="326" fill="#ef4444" font-size="9">DEPARTED!</text>
  <!-- Review completion bar -->
  <rect x="95" y="345" width="250" height="10" fill="#1e1b4b" rx="2"/>
  <rect x="95" y="345" width="90" height="10" fill="#6366f1" rx="2"/>
  <text x="220" y="375" fill="#f59e0b" font-size="10" text-anchor="middle">36% REVIEWED · DEADLINE MISSED</text>
  <text x="310" y="180" fill="#818cf8" font-size="13" font-weight="600" letter-spacing="4" opacity="0.9">GROUPS D / E / F · APPLICATION CONTROLS</text>
  <text x="310" y="265" fill="#ffffff" font-size="46" font-weight="800" letter-spacing="-1">App Access Reviews</text>
  <text x="310" y="320" fill="#c7d2fe" font-size="20" font-weight="400" opacity="0.85">Periodic Certification of Application User Access Rights</text>
  <rect x="310" y="352" width="60" height="4" fill="url(#accent)" rx="2"/>
  <text x="310" y="403" fill="#818cf8" font-size="15" font-weight="500" letter-spacing="2" opacity="0.8">IT GENERAL CONTROLS · IT AUDIT</text>
  <text x="310" y="500" fill="#ffffff" font-size="16" opacity="0.5" letter-spacing="1">marcoweb.org</text>
</svg>
