<svg viewBox="0 0 1200 630" xmlns="http://www.w3.org/2000/svg" font-family="system-ui, -apple-system, sans-serif">
  <defs>
    <linearGradient id="bg" x1="0%" y1="0%" x2="100%" y2="100%">
      <stop offset="0%" stop-color="#001a0a"/>
      <stop offset="100%" stop-color="#003318"/>
    </linearGradient>
    <linearGradient id="accent" x1="0%" y1="0%" x2="100%" y2="0%">
      <stop offset="0%" stop-color="#22c55e"/>
      <stop offset="100%" stop-color="#4ade80"/>
    </linearGradient>
  </defs>
  <rect width="1200" height="630" fill="url(#bg)"/>
  <line x1="0" y1="210" x2="1200" y2="210" stroke="#ffffff" stroke-opacity="0.03" stroke-width="1"/>
  <line x1="0" y1="420" x2="1200" y2="420" stroke="#ffffff" stroke-opacity="0.03" stroke-width="1"/>
  <line x1="400" y1="0" x2="400" y2="630" stroke="#ffffff" stroke-opacity="0.03" stroke-width="1"/>
  <!-- Recovery status panel -->
  <rect x="80" y="215" width="280" height="190" fill="none" stroke="#22c55e" stroke-width="1.5" rx="6" stroke-opacity="0.6"/>
  <text x="220" y="235" fill="#4ade80" font-size="11" text-anchor="middle">BACKUP RECOVERY STATUS</text>
  <line x1="80" y1="245" x2="360" y2="245" stroke="#22c55e" stroke-opacity="0.3" stroke-width="1"/>
  <!-- Recovery timeline entries -->
  <text x="95" y="263" fill="#86efac" font-size="9">INCIDENT DETECTED: 27 Jun 2017</text>
  <rect x="95" y="270" width="240" height="16" fill="#ef4444" fill-opacity="0.15" rx="2"/>
  <text x="100" y="281" fill="#fca5a5" font-size="8">BACKUP 1: OVERWRITTEN BY NOTPETYA</text>
  <rect x="95" y="290" width="240" height="16" fill="#ef4444" fill-opacity="0.15" rx="2"/>
  <text x="100" y="301" fill="#fca5a5" font-size="8">BACKUP 2: DOMAIN CONTROLLER LOST</text>
  <rect x="95" y="310" width="240" height="16" fill="#f59e0b" fill-opacity="0.15" rx="2"/>
  <text x="100" y="321" fill="#fbbf24" font-size="8">BACKUP 3: ISOLATED BACKUP INTACT</text>
  <!-- Recovery stats -->
  <text x="95" y="345" fill="#86efac" font-size="9">45,000 PCs REBUILT FROM SCRATCH</text>
  <text x="95" y="360" fill="#86efac" font-size="9">10 DAYS TO RESTORE OPERATIONS</text>
  <text x="95" y="375" fill="#fca5a5" font-size="9" font-weight="600">COST: USD $300 MILLION</text>
  <text x="310" y="180" fill="#4ade80" font-size="13" font-weight="600" letter-spacing="4" opacity="0.9">GROUP H · OPERATIONAL RESILIENCE CONTROLS</text>
  <text x="310" y="265" fill="#ffffff" font-size="43" font-weight="800" letter-spacing="-1">Backup and Recovery</text>
  <text x="310" y="320" fill="#bbf7d0" font-size="20" font-weight="400" opacity="0.85">Backup Integrity, Testing and Recovery Time Objectives</text>
  <rect x="310" y="352" width="60" height="4" fill="url(#accent)" rx="2"/>
  <text x="310" y="403" fill="#4ade80" font-size="15" font-weight="500" letter-spacing="2" opacity="0.8">IT GENERAL CONTROLS · IT AUDIT</text>
  <text x="310" y="500" fill="#ffffff" font-size="16" opacity="0.5" letter-spacing="1">marcoweb.org</text>
</svg>
