<svg viewBox="0 0 1200 630" xmlns="http://www.w3.org/2000/svg" font-family="system-ui, -apple-system, sans-serif">
  <defs>
    <linearGradient id="bg" x1="0%" y1="0%" x2="100%" y2="100%">
      <stop offset="0%" stop-color="#0a0f1e"/>
      <stop offset="100%" stop-color="#1a2f6e"/>
    </linearGradient>
    <linearGradient id="accent" x1="0%" y1="0%" x2="100%" y2="0%">
      <stop offset="0%" stop-color="#6366f1"/>
      <stop offset="100%" stop-color="#818cf8"/>
    </linearGradient>
  </defs>
  <rect width="1200" height="630" fill="url(#bg)"/>
  <line x1="0" y1="210" x2="1200" y2="210" stroke="#ffffff" stroke-opacity="0.03" stroke-width="1"/>
  <line x1="0" y1="420" x2="1200" y2="420" stroke="#ffffff" stroke-opacity="0.03" stroke-width="1"/>
  <line x1="400" y1="0" x2="400" y2="630" stroke="#ffffff" stroke-opacity="0.03" stroke-width="1"/>
  <!-- Superuser key icon with ERP system -->
  <rect x="90" y="215" width="260" height="190" fill="none" stroke="#6366f1" stroke-width="1.5" rx="6" stroke-opacity="0.6"/>
  <text x="220" y="235" fill="#818cf8" font-size="11" text-anchor="middle">SAP SUPERUSER ACCESS</text>
  <line x1="90" y1="245" x2="350" y2="245" stroke="#6366f1" stroke-opacity="0.3" stroke-width="1"/>
  <!-- Access levels -->
  <rect x="110" y="258" width="220" height="18" fill="#ef4444" fill-opacity="0.2" rx="3"/>
  <text x="220" y="270" fill="#fca5a5" font-size="10" text-anchor="middle" font-weight="600">SAP_ALL · ALL TRANSACTIONS</text>
  <rect x="110" y="282" width="220" height="18" fill="#f59e0b" fill-opacity="0.2" rx="3"/>
  <text x="220" y="294" fill="#fbbf24" font-size="10" text-anchor="middle">BASIS_ADMIN · SYSTEM CONFIG</text>
  <rect x="110" y="306" width="220" height="18" fill="#6366f1" fill-opacity="0.2" rx="3"/>
  <text x="220" y="318" fill="#a5b4fc" font-size="10" text-anchor="middle">Z_FIN_SUPERUSER · ALL FI/CO</text>
  <!-- Large key -->
  <circle cx="185" cy="360" r="20" fill="none" stroke="#f59e0b" stroke-width="2.5"/>
  <rect x="197" y="357" width="45" height="12" fill="none" stroke="#f59e0b" stroke-width="2"/>
  <rect x="232" y="365" width="10" height="10" fill="#f59e0b" fill-opacity="0.5"/>
  <text x="290" y="368" fill="#fbbf24" font-size="10">SUPERUSER KEY</text>
  <text x="310" y="180" fill="#818cf8" font-size="13" font-weight="600" letter-spacing="4" opacity="0.9">GROUPS D / E / F · APPLICATION CONTROLS</text>
  <text x="310" y="265" fill="#ffffff" font-size="46" font-weight="800" letter-spacing="-1">App Privileged Access</text>
  <text x="310" y="320" fill="#c7d2fe" font-size="20" font-weight="400" opacity="0.85">Superuser, Basis and ERP Administrator Controls</text>
  <rect x="310" y="352" width="60" height="4" fill="url(#accent)" rx="2"/>
  <text x="310" y="403" fill="#818cf8" font-size="15" font-weight="500" letter-spacing="2" opacity="0.8">IT GENERAL CONTROLS · IT AUDIT</text>
  <text x="310" y="500" fill="#ffffff" font-size="16" opacity="0.5" letter-spacing="1">marcoweb.org</text>
</svg>
