<svg viewBox="0 0 1200 630" xmlns="http://www.w3.org/2000/svg" font-family="system-ui, -apple-system, sans-serif">
  <defs>
    <linearGradient id="bg" x1="0%" y1="0%" x2="100%" y2="100%">
      <stop offset="0%" stop-color="#0a1628"/>
      <stop offset="100%" stop-color="#1a3a6e"/>
    </linearGradient>
    <linearGradient id="accent" x1="0%" y1="0%" x2="100%" y2="0%">
      <stop offset="0%" stop-color="#3b82f6"/>
      <stop offset="100%" stop-color="#60a5fa"/>
    </linearGradient>
  </defs>
  <rect width="1200" height="630" fill="url(#bg)"/>
  <line x1="0" y1="210" x2="1200" y2="210" stroke="#ffffff" stroke-opacity="0.04" stroke-width="1"/>
  <line x1="0" y1="420" x2="1200" y2="420" stroke="#ffffff" stroke-opacity="0.04" stroke-width="1"/>
  <line x1="400" y1="0" x2="400" y2="630" stroke="#ffffff" stroke-opacity="0.04" stroke-width="1"/>
  <!-- Risk heat map -->
  <rect x="60" y="195" width="80" height="80" fill="#22c55e" fill-opacity="0.25" stroke="#22c55e" stroke-opacity="0.5" stroke-width="1"/>
  <rect x="140" y="195" width="80" height="80" fill="#eab308" fill-opacity="0.25" stroke="#eab308" stroke-opacity="0.5" stroke-width="1"/>
  <rect x="220" y="195" width="80" height="80" fill="#ef4444" fill-opacity="0.35" stroke="#ef4444" stroke-opacity="0.6" stroke-width="1"/>
  <rect x="60" y="275" width="80" height="80" fill="#22c55e" fill-opacity="0.15" stroke="#22c55e" stroke-opacity="0.3" stroke-width="1"/>
  <rect x="140" y="275" width="80" height="80" fill="#22c55e" fill-opacity="0.25" stroke="#22c55e" stroke-opacity="0.5" stroke-width="1"/>
  <rect x="220" y="275" width="80" height="80" fill="#eab308" fill-opacity="0.25" stroke="#eab308" stroke-opacity="0.5" stroke-width="1"/>
  <rect x="60" y="355" width="80" height="80" fill="#22c55e" fill-opacity="0.1" stroke="#22c55e" stroke-opacity="0.2" stroke-width="1"/>
  <rect x="140" y="355" width="80" height="80" fill="#22c55e" fill-opacity="0.15" stroke="#22c55e" stroke-opacity="0.3" stroke-width="1"/>
  <rect x="220" y="355" width="80" height="80" fill="#22c55e" fill-opacity="0.25" stroke="#22c55e" stroke-opacity="0.5" stroke-width="1"/>
  <!-- Risk dot -->
  <circle cx="262" cy="237" r="12" fill="#ef4444" opacity="0.9"/>
  <text x="262" y="241" fill="#ffffff" font-size="11" font-weight="700" text-anchor="middle">!</text>
  <text x="100" y="480" fill="#6b7280" font-size="10" text-anchor="middle">LOW</text>
  <text x="180" y="480" fill="#6b7280" font-size="10" text-anchor="middle">MED</text>
  <text x="260" y="480" fill="#6b7280" font-size="10" text-anchor="middle">HIGH</text>
  <text x="310" y="180" fill="#60a5fa" font-size="13" font-weight="600" letter-spacing="4" opacity="0.9">GROUP A · CONTROL A.3</text>
  <text x="310" y="265" fill="#ffffff" font-size="52" font-weight="800" letter-spacing="-1">IT Risk Management</text>
  <text x="310" y="320" fill="#93c5fd" font-size="22" font-weight="400" opacity="0.85">Risk Registers, Owners, Treatment Plans and Reporting</text>
  <rect x="310" y="355" width="60" height="4" fill="url(#accent)" rx="2"/>
  <text x="310" y="410" fill="#60a5fa" font-size="15" font-weight="500" letter-spacing="2" opacity="0.8">IT GENERAL CONTROLS · IT AUDIT</text>
  <text x="310" y="500" fill="#ffffff" font-size="16" opacity="0.5" letter-spacing="1">marcoweb.org</text>
</svg>
