<svg viewBox="0 0 1200 630" xmlns="http://www.w3.org/2000/svg" font-family="system-ui, -apple-system, sans-serif">
  <defs>
    <linearGradient id="bg" x1="0%" y1="0%" x2="100%" y2="100%">
      <stop offset="0%" stop-color="#0a1628"/>
      <stop offset="100%" stop-color="#1a3a6e"/>
    </linearGradient>
    <linearGradient id="accent" x1="0%" y1="0%" x2="100%" y2="0%">
      <stop offset="0%" stop-color="#3b82f6"/>
      <stop offset="100%" stop-color="#60a5fa"/>
    </linearGradient>
  </defs>
  <rect width="1200" height="630" fill="url(#bg)"/>
  <line x1="0" y1="210" x2="1200" y2="210" stroke="#ffffff" stroke-opacity="0.04" stroke-width="1"/>
  <line x1="0" y1="420" x2="1200" y2="420" stroke="#ffffff" stroke-opacity="0.04" stroke-width="1"/>
  <line x1="400" y1="0" x2="400" y2="630" stroke="#ffffff" stroke-opacity="0.04" stroke-width="1"/>
  <!-- Network nodes: vendor connections -->
  <circle cx="170" cy="315" r="30" fill="none" stroke="url(#accent)" stroke-width="2.5"/>
  <text x="170" y="321" fill="#60a5fa" font-size="18" font-weight="700" text-anchor="middle">ORG</text>
  <circle cx="80" cy="220" r="20" fill="none" stroke="#3b82f6" stroke-width="2" opacity="0.7"/>
  <text x="80" y="226" fill="#93c5fd" font-size="11" text-anchor="middle">V1</text>
  <circle cx="260" cy="220" r="20" fill="none" stroke="#3b82f6" stroke-width="2" opacity="0.7"/>
  <text x="260" y="226" fill="#93c5fd" font-size="11" text-anchor="middle">V2</text>
  <circle cx="80" cy="410" r="20" fill="none" stroke="#3b82f6" stroke-width="2" opacity="0.7"/>
  <text x="80" y="416" fill="#93c5fd" font-size="11" text-anchor="middle">V3</text>
  <circle cx="260" cy="410" r="20" fill="none" stroke="#ef4444" stroke-width="2" opacity="0.8"/>
  <text x="260" y="416" fill="#fca5a5" font-size="11" text-anchor="middle">V4</text>
  <line x1="141" y1="299" x2="100" y2="236" stroke="#3b82f6" stroke-width="1.5" opacity="0.5"/>
  <line x1="199" y1="299" x2="240" y2="236" stroke="#3b82f6" stroke-width="1.5" opacity="0.5"/>
  <line x1="141" y1="331" x2="100" y2="393" stroke="#3b82f6" stroke-width="1.5" opacity="0.5"/>
  <line x1="199" y1="331" x2="240" y2="393" stroke="#ef4444" stroke-width="1.5" opacity="0.7" stroke-dasharray="5,3"/>
  <circle cx="260" cy="410" r="8" fill="#ef4444" opacity="0.6"/>
  <text x="310" y="180" fill="#60a5fa" font-size="13" font-weight="600" letter-spacing="4" opacity="0.9">GROUP A · CONTROL A.2</text>
  <text x="310" y="265" fill="#ffffff" font-size="52" font-weight="800" letter-spacing="-1">Third Party Management</text>
  <text x="310" y="320" fill="#93c5fd" font-size="22" font-weight="400" opacity="0.85">Vendor Risk, Contracts and Supply Chain Security</text>
  <rect x="310" y="355" width="60" height="4" fill="url(#accent)" rx="2"/>
  <text x="310" y="410" fill="#60a5fa" font-size="15" font-weight="500" letter-spacing="2" opacity="0.8">IT GENERAL CONTROLS · IT AUDIT</text>
  <text x="310" y="500" fill="#ffffff" font-size="16" opacity="0.5" letter-spacing="1">marcoweb.org</text>
</svg>
