<svg viewBox="0 0 1200 630" xmlns="http://www.w3.org/2000/svg" font-family="system-ui, -apple-system, sans-serif">
  <defs>
    <linearGradient id="bg" x1="0%" y1="0%" x2="100%" y2="100%">
      <stop offset="0%" stop-color="#0d1117"/>
      <stop offset="100%" stop-color="#111827"/>
    </linearGradient>
    <linearGradient id="band" x1="0%" y1="0%" x2="100%" y2="0%">
      <stop offset="0%" stop-color="#94a3b8"/>
      <stop offset="100%" stop-color="#64748b"/>
    </linearGradient>
  </defs>
  <rect width="1200" height="630" fill="url(#bg)"/>
  <rect width="1200" height="8" fill="url(#band)"/>
  <rect width="1200" height="8" y="622" fill="url(#band)"/>
  <text x="60" y="60" fill="#94a3b8" font-size="13" font-weight="600" letter-spacing="4">DIGITAL INCIDENT REPORT · LEGAL SECTOR</text>
  <line x1="60" y1="70" x2="1140" y2="70" stroke="#94a3b8" stroke-opacity="0.3" stroke-width="1"/>
  <text x="60" y="145" fill="#ffffff" font-size="44" font-weight="800" letter-spacing="-1">HWL Ebsworth</text>
  <text x="60" y="200" fill="#cbd5e1" font-size="24" font-weight="400">4TB of Client Data · ALPHV BlackCat Ransomware</text>
  <rect x="60" y="225" width="50" height="4" fill="#94a3b8" rx="2"/>
  <text x="60" y="280" fill="#cbd5e1" font-size="16" opacity="0.85">ALPHV/BlackCat exfiltrated 4TB from one of Australia's largest</text>
  <text x="60" y="305" fill="#cbd5e1" font-size="16" opacity="0.85">law firms, exposing data for 65+ government agency clients.</text>
  <rect x="60" y="345" width="200" height="100" fill="#1e293b" rx="6"/>
  <text x="160" y="382" fill="#94a3b8" font-size="28" font-weight="800" text-anchor="middle">4TB</text>
  <text x="160" y="405" fill="#cbd5e1" font-size="12" text-anchor="middle">DATA EXFILTRATED</text>
  <rect x="280" y="345" width="200" height="100" fill="#1e293b" rx="6"/>
  <text x="380" y="385" fill="#94a3b8" font-size="24" font-weight="800" text-anchor="middle">Apr 2023</text>
  <text x="380" y="408" fill="#cbd5e1" font-size="12" text-anchor="middle">ATTACK DATE</text>
  <rect x="500" y="345" width="200" height="100" fill="#1e293b" rx="6"/>
  <text x="600" y="382" fill="#ef4444" font-size="18" font-weight="800" text-anchor="middle">65+ Gov</text>
  <text x="600" y="402" fill="#fca5a5" font-size="11" text-anchor="middle">AGENCIES AS DOWNSTREAM VICTIMS</text>
  <rect x="800" y="95" width="340" height="430" fill="#111827" rx="8"/>
  <text x="970" y="130" fill="#94a3b8" font-size="11" text-anchor="middle" letter-spacing="3">ITGC CONTROLS IMPLICATED</text>
  <line x1="820" y1="140" x2="1120" y2="140" stroke="#94a3b8" stroke-opacity="0.2" stroke-width="1"/>
  <text x="820" y="170" fill="#e2e8f0" font-size="13">Ransomware Detection and Response</text>
  <text x="820" y="192" fill="#e2e8f0" font-size="13">Data Exfiltration Prevention (DLP)</text>
  <text x="820" y="236" fill="#e2e8f0" font-size="13">Incident Response and Notification</text>
  <text x="820" y="258" fill="#e2e8f0" font-size="13">Client Data Segregation Controls</text>
  <line x1="820" y1="275" x2="1120" y2="275" stroke="#94a3b8" stroke-opacity="0.2" stroke-width="1"/>
  <text x="970" y="305" fill="#94a3b8" font-size="11" text-anchor="middle" letter-spacing="3">SECTOR CONTEXT</text>
  <text x="820" y="335" fill="#94a3b8" font-size="12">Law firms hold privileged client data</text>
  <text x="820" y="355" fill="#94a3b8" font-size="12">including litigation strategy, contracts,</text>
  <text x="820" y="375" fill="#94a3b8" font-size="12">and government policy documents</text>
  <text x="820" y="395" fill="#94a3b8" font-size="12">that cannot be unexfiltrated.</text>
  <text x="970" y="480" fill="#94a3b8" font-size="11" text-anchor="middle" letter-spacing="2">marcoweb.org</text>
</svg>
