<svg viewBox="0 0 1200 630" xmlns="http://www.w3.org/2000/svg" font-family="system-ui, -apple-system, sans-serif">
  <defs>
    <linearGradient id="bg" x1="0%" y1="0%" x2="100%" y2="100%">
      <stop offset="0%" stop-color="#0d1117"/>
      <stop offset="100%" stop-color="#1a2630"/>
    </linearGradient>
    <linearGradient id="band" x1="0%" y1="0%" x2="100%" y2="0%">
      <stop offset="0%" stop-color="#14b8a6"/>
      <stop offset="100%" stop-color="#0d9488"/>
    </linearGradient>
  </defs>
  <rect width="1200" height="630" fill="url(#bg)"/>
  <rect width="1200" height="8" fill="url(#band)"/>
  <rect width="1200" height="8" y="622" fill="url(#band)"/>
  <text x="60" y="60" fill="#14b8a6" font-size="13" font-weight="600" letter-spacing="4">DIGITAL INCIDENT REPORT · PHARMACEUTICAL SECTOR</text>
  <line x1="60" y1="70" x2="1140" y2="70" stroke="#14b8a6" stroke-opacity="0.3" stroke-width="1"/>
  <text x="60" y="145" fill="#ffffff" font-size="56" font-weight="800" letter-spacing="-1">Merck</text>
  <text x="60" y="200" fill="#99f6e4" font-size="24" font-weight="400">NotPetya Attack · USD $1.3 Billion Loss</text>
  <rect x="60" y="225" width="50" height="4" fill="#14b8a6" rx="2"/>
  <text x="60" y="280" fill="#cbd5e1" font-size="16" opacity="0.85">Nation-state wiper malware destroyed 30,000 systems</text>
  <text x="60" y="305" fill="#cbd5e1" font-size="16" opacity="0.85">across Merck's global pharmaceutical operations.</text>
  <rect x="60" y="345" width="200" height="100" fill="#0d3330" rx="6"/>
  <text x="160" y="385" fill="#14b8a6" font-size="28" font-weight="800" text-anchor="middle">$1.3B</text>
  <text x="160" y="408" fill="#99f6e4" font-size="12" text-anchor="middle">TOTAL LOSS ESTIMATE</text>
  <rect x="280" y="345" width="200" height="100" fill="#0d3330" rx="6"/>
  <text x="380" y="385" fill="#14b8a6" font-size="24" font-weight="800" text-anchor="middle">30,000</text>
  <text x="380" y="408" fill="#99f6e4" font-size="12" text-anchor="middle">SYSTEMS DESTROYED</text>
  <rect x="500" y="345" width="200" height="100" fill="#0d3330" rx="6"/>
  <text x="600" y="385" fill="#ef4444" font-size="22" font-weight="800" text-anchor="middle">Jun 2017</text>
  <text x="600" y="408" fill="#fca5a5" font-size="12" text-anchor="middle">NOTPETYA ZERO-DAY</text>
  <rect x="800" y="95" width="340" height="430" fill="#111827" rx="8"/>
  <text x="970" y="130" fill="#14b8a6" font-size="11" text-anchor="middle" letter-spacing="3">ITGC CONTROLS IMPLICATED</text>
  <line x1="820" y1="140" x2="1120" y2="140" stroke="#14b8a6" stroke-opacity="0.2" stroke-width="1"/>
  <text x="820" y="170" fill="#e2e8f0" font-size="13">Patch Management (EternalBlue)</text>
  <text x="820" y="192" fill="#e2e8f0" font-size="13">Network Segmentation</text>
  <text x="820" y="214" fill="#e2e8f0" font-size="13">Backup Isolation and Recovery</text>
  <text x="820" y="236" fill="#e2e8f0" font-size="13">Third-Party Software Update Controls</text>
  <text x="820" y="258" fill="#e2e8f0" font-size="13">Disaster Recovery Testing</text>
  <line x1="820" y1="275" x2="1120" y2="275" stroke="#14b8a6" stroke-opacity="0.2" stroke-width="1"/>
  <text x="970" y="305" fill="#14b8a6" font-size="11" text-anchor="middle" letter-spacing="3">SECTOR CONTEXT</text>
  <text x="820" y="335" fill="#94a3b8" font-size="12">Pharma manufacturers depend on</text>
  <text x="820" y="355" fill="#94a3b8" font-size="12">validated GxP systems. System</text>
  <text x="820" y="375" fill="#94a3b8" font-size="12">destruction triggers regulatory re-</text>
  <text x="820" y="395" fill="#94a3b8" font-size="12">validation requirements, amplifying cost.</text>
  <text x="970" y="480" fill="#14b8a6" font-size="11" text-anchor="middle" letter-spacing="2">marcoweb.org</text>
</svg>
