<svg viewBox="0 0 1200 630" xmlns="http://www.w3.org/2000/svg" font-family="system-ui, -apple-system, sans-serif">
  <defs>
    <linearGradient id="bg" x1="0%" y1="0%" x2="100%" y2="100%">
      <stop offset="0%" stop-color="#0d1117"/>
      <stop offset="100%" stop-color="#1a0a0d"/>
    </linearGradient>
    <linearGradient id="band" x1="0%" y1="0%" x2="100%" y2="0%">
      <stop offset="0%" stop-color="#f43f5e"/>
      <stop offset="100%" stop-color="#be123c"/>
    </linearGradient>
  </defs>
  <rect width="1200" height="630" fill="url(#bg)"/>
  <rect width="1200" height="8" fill="url(#band)"/>
  <rect width="1200" height="8" y="622" fill="url(#band)"/>
  <text x="60" y="60" fill="#f43f5e" font-size="13" font-weight="600" letter-spacing="4">DIGITAL INCIDENT REPORT · EDUCATION SECTOR</text>
  <line x1="60" y1="70" x2="1140" y2="70" stroke="#f43f5e" stroke-opacity="0.3" stroke-width="1"/>
  <text x="60" y="145" fill="#ffffff" font-size="40" font-weight="800" letter-spacing="-1">University Sector</text>
  <text x="60" y="200" fill="#fda4af" font-size="24" font-weight="400">Ransomware Pattern Analysis · 2019 to 2023</text>
  <rect x="60" y="225" width="50" height="4" fill="#f43f5e" rx="2"/>
  <text x="60" y="280" fill="#cbd5e1" font-size="16" opacity="0.85">Universities face a structural ransomware vulnerability: open</text>
  <text x="60" y="305" fill="#cbd5e1" font-size="16" opacity="0.85">networks, legacy systems, and research data under deadline.</text>
  <rect x="60" y="345" width="200" height="100" fill="#3b0010" rx="6"/>
  <text x="160" y="382" fill="#f43f5e" font-size="28" font-weight="800" text-anchor="middle">60%+</text>
  <text x="160" y="405" fill="#fda4af" font-size="12" text-anchor="middle">UK UNIS HIT 2019-2023</text>
  <rect x="280" y="345" width="200" height="100" fill="#3b0010" rx="6"/>
  <text x="380" y="382" fill="#f43f5e" font-size="22" font-weight="800" text-anchor="middle">$2.7M</text>
  <text x="380" y="405" fill="#fda4af" font-size="11" text-anchor="middle">AVG COST PER INCIDENT</text>
  <rect x="500" y="345" width="200" height="100" fill="#3b0010" rx="6"/>
  <text x="600" y="382" fill="#f43f5e" font-size="18" font-weight="800" text-anchor="middle">Open BYOD</text>
  <text x="600" y="402" fill="#fda4af" font-size="11" text-anchor="middle">UNCONTROLLED ENDPOINTS</text>
  <rect x="800" y="95" width="340" height="430" fill="#111827" rx="8"/>
  <text x="970" y="130" fill="#f43f5e" font-size="11" text-anchor="middle" letter-spacing="3">ITGC CONTROLS IMPLICATED</text>
  <line x1="820" y1="140" x2="1120" y2="140" stroke="#f43f5e" stroke-opacity="0.2" stroke-width="1"/>
  <text x="820" y="170" fill="#e2e8f0" font-size="13">Endpoint Detection and Response</text>
  <text x="820" y="192" fill="#e2e8f0" font-size="13">Network Segmentation (Research/Admin)</text>
  <text x="820" y="214" fill="#e2e8f0" font-size="13">Vulnerability and Patch Management</text>
  <text x="820" y="236" fill="#e2e8f0" font-size="13">Backup Isolation and Recovery</text>
  <text x="820" y="258" fill="#e2e8f0" font-size="13">Identity and Access Governance</text>
  <line x1="820" y1="275" x2="1120" y2="275" stroke="#f43f5e" stroke-opacity="0.2" stroke-width="1"/>
  <text x="970" y="305" fill="#f43f5e" font-size="11" text-anchor="middle" letter-spacing="3">SECTOR CONTEXT</text>
  <text x="820" y="335" fill="#94a3b8" font-size="12">Universities balance open academic</text>
  <text x="820" y="355" fill="#94a3b8" font-size="12">networks with security obligations for</text>
  <text x="820" y="375" fill="#94a3b8" font-size="12">research data, student records, and</text>
  <text x="820" y="395" fill="#94a3b8" font-size="12">grant-funded IP.</text>
  <text x="970" y="480" fill="#f43f5e" font-size="11" text-anchor="middle" letter-spacing="2">marcoweb.org</text>
</svg>
