<svg viewBox="0 0 1200 630" xmlns="http://www.w3.org/2000/svg" font-family="system-ui, -apple-system, sans-serif">
  <defs>
    <linearGradient id="bg" x1="0%" y1="0%" x2="100%" y2="100%">
      <stop offset="0%" stop-color="#0d1117"/>
      <stop offset="100%" stop-color="#1a1f0d"/>
    </linearGradient>
    <linearGradient id="band" x1="0%" y1="0%" x2="100%" y2="0%">
      <stop offset="0%" stop-color="#f59e0b"/>
      <stop offset="100%" stop-color="#d97706"/>
    </linearGradient>
  </defs>
  <rect width="1200" height="630" fill="url(#bg)"/>
  <rect width="1200" height="8" fill="url(#band)"/>
  <rect width="1200" height="8" y="622" fill="url(#band)"/>
  <text x="60" y="60" fill="#f59e0b" font-size="13" font-weight="600" letter-spacing="4">DIGITAL INCIDENT REPORT · MINING AND METALS SECTOR</text>
  <line x1="60" y1="70" x2="1140" y2="70" stroke="#f59e0b" stroke-opacity="0.3" stroke-width="1"/>
  <text x="60" y="145" fill="#ffffff" font-size="52" font-weight="800" letter-spacing="-1">Norsk Hydro</text>
  <text x="60" y="200" fill="#fde68a" font-size="24" font-weight="400">LockerGoga Ransomware · USD $71 Million Loss</text>
  <rect x="60" y="225" width="50" height="4" fill="#f59e0b" rx="2"/>
  <text x="60" y="280" fill="#cbd5e1" font-size="16" opacity="0.85">LockerGoga ransomware encrypted systems across the</text>
  <text x="60" y="305" fill="#cbd5e1" font-size="16" opacity="0.85">global aluminium manufacturer, forcing manual operations.</text>
  <rect x="60" y="345" width="200" height="100" fill="#2d1f00" rx="6"/>
  <text x="160" y="385" fill="#f59e0b" font-size="28" font-weight="800" text-anchor="middle">$71M</text>
  <text x="160" y="408" fill="#fde68a" font-size="12" text-anchor="middle">ESTIMATED LOSS</text>
  <rect x="280" y="345" width="200" height="100" fill="#2d1f00" rx="6"/>
  <text x="380" y="385" fill="#f59e0b" font-size="24" font-weight="800" text-anchor="middle">Marcy 2019</text>
  <text x="380" y="408" fill="#fde68a" font-size="12" text-anchor="middle">INCIDENT DATE</text>
  <rect x="500" y="345" width="200" height="100" fill="#2d1f00" rx="6"/>
  <text x="600" y="382" fill="#f59e0b" font-size="20" font-weight="800" text-anchor="middle">MANUAL OPS</text>
  <text x="600" y="402" fill="#fde68a" font-size="11" text-anchor="middle">SMELTERS RAN ON PAPER</text>
  <rect x="800" y="95" width="340" height="430" fill="#111827" rx="8"/>
  <text x="970" y="130" fill="#f59e0b" font-size="11" text-anchor="middle" letter-spacing="3">ITGC CONTROLS IMPLICATED</text>
  <line x1="820" y1="140" x2="1120" y2="140" stroke="#f59e0b" stroke-opacity="0.2" stroke-width="1"/>
  <text x="820" y="170" fill="#e2e8f0" font-size="13">Active Directory Compromise Prevention</text>
  <text x="820" y="192" fill="#e2e8f0" font-size="13">Privileged Account Lateral Movement</text>
  <text x="820" y="214" fill="#e2e8f0" font-size="13">OT/IT Network Segmentation</text>
  <text x="820" y="236" fill="#e2e8f0" font-size="13">Backup and Recovery Testing</text>
  <text x="820" y="258" fill="#e2e8f0" font-size="13">Incident Response Planning</text>
  <line x1="820" y1="275" x2="1120" y2="275" stroke="#f59e0b" stroke-opacity="0.2" stroke-width="1"/>
  <text x="970" y="305" fill="#f59e0b" font-size="11" text-anchor="middle" letter-spacing="3">SECTOR CONTEXT</text>
  <text x="820" y="335" fill="#94a3b8" font-size="12">Mining and metals operations combine</text>
  <text x="820" y="355" fill="#94a3b8" font-size="12">IT and OT (operational technology)</text>
  <text x="820" y="375" fill="#94a3b8" font-size="12">networks. Convergence creates attack</text>
  <text x="820" y="395" fill="#94a3b8" font-size="12">paths to physical production systems.</text>
  <text x="970" y="480" fill="#f59e0b" font-size="11" text-anchor="middle" letter-spacing="2">marcoweb.org</text>
</svg>
